<svg xmlns="http://www.w3.org/2000/svg" viewBox="0 0 64 64">
  <defs>
    <linearGradient id="g" x1="0%" y1="0%" x2="100%" y2="100%">
      <stop offset="0%" stop-color="#0d6b68" />
      <stop offset="100%" stop-color="#b85d2a" />
    </linearGradient>
  </defs>
  <rect width="64" height="64" rx="18" fill="#14120f" />
  <path
    d="M18 21.5C18 17.9 20.8 15 25.3 15H44v8.1H27.2c-1.4 0-2.1.6-2.1 1.7 0 1 .6 1.5 2.4 2.1l5.9 1.9c5.1 1.6 8.1 4.5 8.1 9.7 0 6.3-4.8 10.5-12.2 10.5H18v-8.1h11.3c2.4 0 4-.9 4-2.6 0-1.1-.8-1.9-2.5-2.4l-6.2-1.9c-4.2-1.3-6.6-4.1-6.6-8.9Z"
    fill="url(#g)"
  />
</svg>
